<svg width="32" height="32" viewBox="0 0 32 32" fill="none" xmlns="http://www.w3.org/2000/svg">
<path d="M26.7632 23.3452V15.3539C26.7632 14.1542 26.2841 13.0029 25.4127 12.1783C24.3913 11.2116 22.9742 9.90754 21.8301 8.9942C19.666 7.26652 18.5859 5.85492 16 5.85492C13.4141 5.85492 12.334 7.26652 10.1699 8.9942C9.02584 9.90754 7.60871 11.2116 6.58729 12.1783C5.71594 13.0029 5.23676 14.1542 5.23676 15.3539V23.3452C5.23676 24.8313 6.44147 25.6378 7.92757 25.6378H11.7639C12.3161 25.6378 12.7639 25.19 12.7639 24.6378V20.3006V19.3398C12.7639 17.5289 14.2318 16.0609 16.0427 16.0609C17.8536 16.0609 19.3216 17.5289 19.3216 19.3398V20.3006V24.6378C19.3216 25.19 19.7693 25.6378 20.3216 25.6378H24.0724C25.5585 25.6378 26.7632 24.8313 26.7632 23.3452Z" stroke="#B8B8B8" stroke-width="3"/>
</svg>
